# xmcd
#
# Track frame offsets: 
#        150
#        19550
#        41715
#        60587
#        73252
#        89750
#        106597
#        134552
#        148147
#        165275
#        184580
#        197837
#
# Disc length: 2972 seconds
#
# Revision: 0
# Processed by: cddbd v1.5.2PL0 Copyright (c) Steve Scherf et al.
# Submitted via: ExactAudioCopy v0.99pb5
#
DISCID=a90b9a0c
DTITLE=M. R. Smallwood - At his best
DYEAR=1997
DGENRE=Blues
TTITLE0=01 Don't think twice
TTITLE1=02 Time goes by
TTITLE2=03 Blues
TTITLE3=04 Nice feelings
TTITLE4=05 Time is
TTITLE5=06 The whole
TTITLE6=07 Far away
TTITLE7=08 Get some Blues
TTITLE8=09 Screaming windows
TTITLE9=10 Changing
TTITLE10=11 I show you the way
TTITLE11=12 Oh Lord
EXTD=
EXTT0=
EXTT1=
EXTT2=
EXTT3=
EXTT4=
EXTT5=
EXTT6=
EXTT7=
EXTT8=
EXTT9=
EXTT10=
EXTT11=
PLAYORDER=
